<?xml version="1.0" encoding="utf-8"?>
<!-- Generator: Adobe Illustrator 25.2.3, SVG Export Plug-In . SVG Version: 6.00 Build 0)  -->
<svg version="1.1" id="Layer_1" xmlns="http://www.w3.org/2000/svg" xmlns:xlink="http://www.w3.org/1999/xlink" x="0px" y="0px"
	 viewBox="0 0 1156.09 273.33" style="enable-background:new 0 0 1156.09 273.33;" xml:space="preserve">
<style type="text/css">
	.st0{fill:#212121;}
	.st1{fill:#29A967;}
	.st2{fill:none;stroke:#F7941D;stroke-miterlimit:10;}
	.st3{fill:#F7941D;}
	.st4{fill:#FFFFFF;}
	.st5{fill:#3A6A8E;}
	.st6{opacity:0.5;fill:#EC008C;}
	.st7{fill:none;stroke:#EC008C;stroke-width:0.1;stroke-miterlimit:10;}
	.st8{fill:none;stroke:#EC008C;stroke-miterlimit:10;}
</style>
<g>
	<g>
		<g>
			<path class="st0" d="M94.77,70.8h-27v130.64h27V70.8z M165.72,201.44h27v-91.61h-27V201.44z M234.77,201.44h31.08l31.08-91.61
				h-27c0,0-14.44,49.67-18.83,65.48h-0.31c-4.39-15.81-19.15-65.48-19.15-65.48h-28.56L234.77,201.44z M391.1,109.83h-26.05v12.58
				c-4.39-9.68-14.75-15.16-26.99-15.16c-21.97,0-39.55,18.39-39.55,48.38s16.95,48.38,38.3,48.38c15.07,0,23.85-7.42,28.57-15.81
				v13.22h26.05L391.1,109.83z M364.42,157.89c0,16.77-10.05,24.84-20.09,24.84c-10.99,0-18.21-11.61-18.21-27.09
				s7.53-27.09,19.15-27.09c9.42,0,19.15,8.06,19.15,24.84V157.89z M101.68,153.38c43.32,0,53.36-37.09,53.36-43.55h-3.77
				c-43.32,0-53.36,37.09-53.36,43.55H101.68z M97.91,156.6c0,6.77,7.53,44.51,53.99,44.51h3.77c0-6.77-7.53-44.51-53.99-44.51
				H97.91z M195.54,84.67c0-8.71-6.59-16.13-15.07-16.13c-0.31,0-0.63,0-0.94,0c-8.48-0.32-15.7,6.45-16.01,15.16
				c0,0.32,0,0.65,0,0.97c0,8.71,6.59,16.13,15.07,16.13c0.31,0,0.63,0,0.94,0c8.48,0.32,15.69-6.45,16.01-15.16
				C195.54,85.32,195.54,85,195.54,84.67z"/>
		</g>
		<g>
			<g>
				<path class="st1" d="M510.89,91.25c-2.54-5.33-6.1-9.72-10.67-13.14c-4.57-3.43-10.1-5.97-16.57-7.62
					c-6.48-1.65-13.72-2.48-21.72-2.48h-50.67v133.35h28.38v-46.86h22.29c7.75,0,14.86-0.83,21.34-2.48c6.48-1.78,12-4.44,16.57-8
					c4.7-3.68,8.32-8.25,10.86-13.72c2.67-5.59,4-12.19,4-19.81C514.7,102.99,513.43,96.58,510.89,91.25z M478.88,126.11
					c-4.32,3.17-10.92,4.76-19.81,4.76h-19.43V91.63h19.43c8.89,0,15.49,1.33,19.81,4c4.45,2.67,6.67,7.62,6.67,14.86
					C485.55,117.73,483.33,122.93,478.88,126.11z"/>
				<path class="st1" d="M583.54,135.25c-1.52-1.14-3.3-1.9-5.33-2.29c-1.91-0.51-3.75-0.76-5.52-0.76c-2.16,0-4.51,0.44-7.05,1.33
					c-2.54,0.76-4.89,2.22-7.05,4.38c-2.03,2.03-3.75,4.76-5.14,8.19c-1.4,3.43-2.1,7.75-2.1,12.95v42.29h-27.43v-90.68h25.72v15.24
					c2.79-6.1,6.35-10.6,10.67-13.52c4.32-2.92,9.84-4.38,16.58-4.38c1.78,0,3.62,0.13,5.52,0.38c2.03,0.25,4.06,0.83,6.1,1.71
					L583.54,135.25z"/>
				<path class="st1" d="M680.49,136.01c-2.29-5.97-5.52-10.99-9.71-15.05c-4.06-4.19-9.02-7.37-14.86-9.52
					c-5.84-2.29-12.32-3.43-19.43-3.43c-6.98,0-13.4,1.14-19.24,3.43c-5.84,2.16-10.86,5.33-15.05,9.52
					c-4.06,4.06-7.24,9.08-9.53,15.05c-2.29,5.84-3.43,12.51-3.43,20c0,7.37,1.14,14.03,3.43,20s5.46,11.05,9.53,15.24
					c4.19,4.06,9.21,7.24,15.05,9.52c5.84,2.16,12.26,3.24,19.24,3.24c7.11,0,13.59-1.08,19.43-3.24c5.84-2.29,10.8-5.46,14.86-9.52
					c4.19-4.19,7.43-9.27,9.71-15.24c2.29-5.97,3.43-12.64,3.43-20C683.91,148.52,682.77,141.85,680.49,136.01z M654.96,166.87
					c-0.76,3.3-1.97,6.22-3.62,8.76c-1.52,2.41-3.56,4.32-6.1,5.71c-2.41,1.4-5.33,2.1-8.76,2.1c-3.43,0-6.35-0.7-8.76-2.1
					c-2.41-1.4-4.44-3.3-6.1-5.71c-1.52-2.54-2.67-5.46-3.43-8.76c-0.76-3.43-1.14-7.05-1.14-10.86c0-3.81,0.38-7.37,1.14-10.67
					c0.76-3.43,1.91-6.35,3.43-8.76c1.65-2.54,3.68-4.51,6.1-5.91c2.41-1.4,5.33-2.1,8.76-2.1c3.43,0,6.35,0.7,8.76,2.1
					c2.54,1.4,4.57,3.37,6.1,5.91c1.65,2.41,2.86,5.33,3.62,8.76c0.76,3.3,1.14,6.86,1.14,10.67
					C656.1,159.82,655.72,163.44,654.96,166.87z"/>
				<path class="st1" d="M753.09,200.02c-2.79,1.27-6.03,2.22-9.71,2.86c-3.56,0.76-7.17,1.14-10.86,1.14
					c-4.45,0-8.57-0.51-12.38-1.52s-7.11-2.67-9.91-4.95c-2.79-2.41-5.02-5.46-6.67-9.14c-1.52-3.81-2.29-8.45-2.29-13.91v-43.81
					h-15.05v-20h15.05V84.77l27.43-12.38v38.29h19.62v20h-19.62v40.19c0,4.57,0.7,7.56,2.09,8.95c1.52,1.27,3.43,1.91,5.72,1.91
					c2.16,0,3.94-0.32,5.33-0.95c1.52-0.76,3.05-1.52,4.57-2.29L753.09,200.02z"/>
				<path class="st1" d="M847.42,136.01c-2.29-5.97-5.53-10.99-9.71-15.05c-4.06-4.19-9.02-7.37-14.86-9.52
					c-5.84-2.29-12.32-3.43-19.43-3.43c-6.99,0-13.4,1.14-19.24,3.43c-5.84,2.16-10.86,5.33-15.05,9.52
					c-4.06,4.06-7.24,9.08-9.53,15.05c-2.29,5.84-3.43,12.51-3.43,20c0,7.37,1.14,14.03,3.43,20c2.29,5.97,5.46,11.05,9.53,15.24
					c4.19,4.06,9.21,7.24,15.05,9.52c5.84,2.16,12.25,3.24,19.24,3.24c7.11,0,13.59-1.08,19.43-3.24c5.84-2.29,10.8-5.46,14.86-9.52
					c4.19-4.19,7.43-9.27,9.71-15.24s3.43-12.64,3.43-20C850.84,148.52,849.7,141.85,847.42,136.01z M821.89,166.87
					c-0.76,3.3-1.97,6.22-3.62,8.76c-1.52,2.41-3.56,4.32-6.1,5.71c-2.41,1.4-5.33,2.1-8.76,2.1c-3.43,0-6.35-0.7-8.76-2.1
					c-2.41-1.4-4.44-3.3-6.09-5.71c-1.52-2.54-2.67-5.46-3.43-8.76c-0.76-3.43-1.14-7.05-1.14-10.86c0-3.81,0.38-7.37,1.14-10.67
					c0.76-3.43,1.91-6.35,3.43-8.76c1.65-2.54,3.68-4.51,6.09-5.91c2.41-1.4,5.33-2.1,8.76-2.1c3.43,0,6.35,0.7,8.76,2.1
					c2.54,1.4,4.57,3.37,6.1,5.91c1.65,2.41,2.86,5.33,3.62,8.76c0.76,3.3,1.14,6.86,1.14,10.67
					C823.03,159.82,822.65,163.44,821.89,166.87z"/>
				<path class="st1" d="M860.06,156.01c0-7.49,1.14-14.16,3.43-20c2.29-5.97,5.46-10.99,9.53-15.05c4.19-4.19,9.21-7.37,15.05-9.52
					c5.84-2.29,12.25-3.43,19.24-3.43c5.59,0,10.48,0.7,14.67,2.1c4.32,1.27,8,3.11,11.05,5.52c3.18,2.29,5.84,5.02,8,8.19
					c2.29,3.18,4.19,6.6,5.72,10.29l-24.77,9.14c-1.02-4.7-2.92-8.19-5.72-10.48c-2.67-2.41-6.03-3.62-10.1-3.62
					c-3.3,0-6.1,0.83-8.38,2.48c-2.29,1.52-4.19,3.56-5.72,6.1c-1.4,2.54-2.41,5.4-3.05,8.57c-0.64,3.17-0.95,6.41-0.95,9.72
					c0,3.05,0.25,6.16,0.76,9.33c0.64,3.18,1.65,6.1,3.05,8.76c1.4,2.54,3.24,4.64,5.52,6.29c2.41,1.52,5.4,2.29,8.95,2.29
					c4.19,0,7.43-1.14,9.71-3.43c2.41-2.41,4.32-5.52,5.72-9.33l25.34,9.52c-1.91,3.3-4.06,6.48-6.48,9.52
					c-2.29,2.92-5.08,5.52-8.38,7.81c-3.18,2.16-6.86,3.87-11.05,5.14c-4.19,1.4-9.02,2.1-14.48,2.1c-6.86,0-13.21-1.08-19.05-3.24
					c-5.72-2.16-10.6-5.27-14.67-9.33c-4.06-4.19-7.24-9.21-9.53-15.05C861.2,170.43,860.06,163.63,860.06,156.01z"/>
				<path class="st1" d="M1042.97,136.01c-2.29-5.97-5.52-10.99-9.71-15.05c-4.06-4.19-9.02-7.37-14.86-9.52
					c-5.84-2.29-12.32-3.43-19.43-3.43c-6.98,0-13.4,1.14-19.24,3.43c-5.84,2.16-10.86,5.33-15.05,9.52
					c-4.06,4.06-7.24,9.08-9.53,15.05c-2.29,5.84-3.43,12.51-3.43,20c0,7.37,1.14,14.03,3.43,20c2.29,5.97,5.46,11.05,9.53,15.24
					c4.19,4.06,9.21,7.24,15.05,9.52c5.84,2.16,12.26,3.24,19.24,3.24c7.11,0,13.59-1.08,19.43-3.24c5.84-2.29,10.8-5.46,14.86-9.52
					c4.19-4.19,7.43-9.27,9.71-15.24c2.29-5.97,3.43-12.64,3.43-20C1046.4,148.52,1045.25,141.85,1042.97,136.01z M1017.44,166.87
					c-0.76,3.3-1.97,6.22-3.62,8.76c-1.52,2.41-3.56,4.32-6.1,5.71c-2.41,1.4-5.33,2.1-8.76,2.1c-3.43,0-6.35-0.7-8.76-2.1
					c-2.41-1.4-4.45-3.3-6.1-5.71c-1.52-2.54-2.67-5.46-3.43-8.76c-0.76-3.43-1.14-7.05-1.14-10.86c0-3.81,0.38-7.37,1.14-10.67
					c0.76-3.43,1.9-6.35,3.43-8.76c1.65-2.54,3.68-4.51,6.1-5.91c2.41-1.4,5.33-2.1,8.76-2.1c3.43,0,6.35,0.7,8.76,2.1
					c2.54,1.4,4.57,3.37,6.1,5.91c1.65,2.41,2.86,5.33,3.62,8.76c0.76,3.3,1.14,6.86,1.14,10.67
					C1018.58,159.82,1018.2,163.44,1017.44,166.87z"/>
				<rect x="1058.66" y="68.01" class="st1" width="27.43" height="133.35"/>
			</g>
		</g>
	</g>
</g>
</svg>
